<?xml version="1.0" standalone="no"?>
<!DOCTYPE svg PUBLIC "-//W3C//DTD SVG 20010904//EN"
 "http://www.w3.org/TR/2001/REC-SVG-20010904/DTD/svg10.dtd">
<svg version="1.0" xmlns="http://www.w3.org/2000/svg"
 width="512.000000pt" height="512.000000pt" viewBox="0 0 512.000000 512.000000"
 preserveAspectRatio="xMidYMid meet">
<metadata>
Created by potrace 1.14, written by Peter Selinger 2001-2017
</metadata>
<g transform="translate(0.000000,512.000000) scale(0.100000,-0.100000)"
fill="#000000" stroke="none">
<path d="M2410 4670 c0 -279 1 -300 18 -301 25 -1 255 -1 270 0 9 1 12 68 12
301 l0 300 -150 0 -150 0 0 -300z"/>
<path d="M1440 4685 l-104 -105 209 -210 c116 -115 213 -210 216 -210 7 0 173
163 198 193 12 16 -7 38 -197 227 -115 116 -211 210 -214 210 -2 0 -50 -47
-108 -105z"/>
<path d="M3356 4579 c-185 -186 -207 -211 -195 -226 28 -33 191 -193 197 -193
4 0 101 94 216 209 l210 210 -104 105 c-58 59 -107 106 -110 105 -3 0 -99 -94
-214 -210z"/>
<path d="M2458 3915 c-2 -1 -39 -5 -83 -9 -335 -26 -695 -131 -1048 -307 -414
-206 -866 -544 -1186 -885 -36 -38 -83 -88 -105 -112 -24 -25 -37 -46 -31 -50
6 -4 30 -29 54 -57 409 -464 998 -881 1551 -1100 184 -72 482 -151 644 -170
222 -26 388 -26 616 0 174 20 534 119 700 192 558 247 1057 603 1464 1047 l87
95 -52 58 c-406 454 -974 867 -1486 1079 -176 73 -462 160 -587 179 -21 3 -48
7 -60 10 -20 4 -66 10 -161 21 -46 6 -312 13 -317 9z m323 -325 c486 -106 830
-529 833 -1025 1 -321 -144 -624 -399 -832 -111 -90 -316 -185 -450 -208 -77
-13 -221 -20 -300 -14 -431 33 -817 360 -925 784 -41 159 -45 288 -15 470 10
59 60 206 94 272 142 280 420 492 731 557 98 21 328 19 431 -4z m-1376 -322
c-79 -129 -151 -313 -174 -444 -6 -32 -13 -75 -17 -94 -11 -66 -5 -314 10
-399 30 -162 89 -322 170 -461 20 -34 36 -63 36 -65 0 -7 -240 134 -345 203
-87 57 -381 274 -395 291 -3 3 -43 40 -90 81 -46 41 -109 99 -140 128 l-55 52
61 58 c272 258 576 484 873 649 42 23 80 42 84 43 5 0 -4 -19 -18 -42z m2373
1 c274 -148 606 -395 876 -652 l61 -57 -65 -61 c-56 -53 -155 -142 -252 -225
-53 -46 -294 -222 -379 -278 -115 -74 -307 -185 -322 -186 -5 0 4 19 18 43
265 429 265 983 0 1415 -14 23 -23 42 -20 42 3 0 41 -19 83 -41z"/>
<path d="M2417 3145 c-107 -27 -209 -86 -286 -165 -122 -125 -177 -273 -168
-450 16 -337 294 -586 630 -568 159 10 283 65 395 179 103 103 160 233 169
381 18 275 -146 519 -407 609 -83 28 -248 35 -333 14z m243 -302 c150 -48 234
-221 184 -379 -14 -46 -30 -71 -73 -114 -71 -70 -138 -95 -233 -87 -77 6 -126
26 -179 74 -62 56 -92 123 -95 212 -3 86 13 135 64 199 80 100 205 136 332 95z"/>
<path d="M1545 750 l-209 -209 106 -107 107 -107 212 211 c191 191 210 213
198 229 -24 30 -191 193 -198 193 -3 0 -100 -94 -216 -210z"/>
<path d="M3264 872 c-49 -49 -95 -96 -103 -105 -12 -15 9 -39 199 -229 l212
-211 106 106 106 106 -209 211 c-116 115 -213 210 -216 210 -4 0 -46 -40 -95
-88z"/>
<path d="M2443 752 l-33 -3 0 -300 0 -299 150 0 150 0 0 303 0 302 -117 0
c-65 0 -133 -1 -150 -3z"/>
</g>
</svg>
