<?xml version="1.0" encoding="UTF-8" standalone="no"?>
<!-- Created with Inkscape (http://www.inkscape.org/) -->

<svg
   width="93.248741mm"
   height="104.97925mm"
   viewBox="0 0 93.248741 104.97925"
   version="1.1"
   id="svg1"
   xml:space="preserve"
   xmlns="http://www.w3.org/2000/svg"
   xmlns:svg="http://www.w3.org/2000/svg"><defs
     id="defs1"><radialGradient
       fx="50.000641"
       fy="50.000641"
       cx="50.000641"
       cy="50.000641"
       r="50.000641"
       gradientUnits="userSpaceOnUse"
       id="radialGradient3"><stop
         style="stop-opacity:1;stop-color:#ff0000"
         offset="0"
         id="stop1" /><stop
         style="stop-opacity:1;stop-color:#ff9999"
         offset="0.5"
         id="stop2" /><stop
         style="stop-opacity:1;stop-color:#ff9999"
         offset="1"
         id="stop3" /></radialGradient><clipPath
       clipPathUnits="userSpaceOnUse"
       id="clipPath4"><path
         d="m 55.26112,35.04951 c 0,16.60715 -13.46237,30.06952 -30.0695,30.06952 -16.60715,0 -30.0695,-13.46237 -30.0695,-30.06952 0,-16.60713 13.46235,-30.0695 30.0695,-30.0695 16.60713,0 30.0695,13.46237 30.0695,30.0695 z"
         transform="matrix(1.3333333,0,0,-1.3333333,20.58,162.796)"
         clip-rule="evenodd"
         id="path4" /></clipPath><radialGradient
       fx="50.000641"
       fy="50.000641"
       cx="50.000641"
       cy="50.000641"
       r="50.000641"
       gradientUnits="userSpaceOnUse"
       id="radialGradient6"><stop
         style="stop-opacity:1;stop-color:#ff0000"
         offset="0"
         id="stop4" /><stop
         style="stop-opacity:1;stop-color:#ff9999"
         offset="0.5"
         id="stop5" /><stop
         style="stop-opacity:1;stop-color:#ff9999"
         offset="1"
         id="stop6" /></radialGradient><clipPath
       clipPathUnits="userSpaceOnUse"
       id="clipPath7"><path
         d="m 225.50803,-1.75249 c 0,39.85712 -32.3097,72.16681 -72.16684,72.16681 -39.85714,0 -72.16683,-32.30969 -72.16683,-72.16681 0,-39.85714 32.30969,-72.16684 72.16683,-72.16684 39.85714,0 72.16684,32.3097 72.16684,72.16684 z"
         transform="matrix(1.3333333,0,0,-1.3333333,20.58,162.796)"
         clip-rule="evenodd"
         id="path7" /></clipPath><radialGradient
       fx="50.000641"
       fy="50.000641"
       cx="50.000641"
       cy="50.000641"
       r="50.000641"
       gradientUnits="userSpaceOnUse"
       id="radialGradient9"><stop
         style="stop-opacity:1;stop-color:#ff0000"
         offset="0"
         id="stop7" /><stop
         style="stop-opacity:1;stop-color:#ff9999"
         offset="0.5"
         id="stop8" /><stop
         style="stop-opacity:1;stop-color:#ff9999"
         offset="1"
         id="stop9" /></radialGradient><clipPath
       clipPathUnits="userSpaceOnUse"
       id="clipPath10"><path
         d="m 238.32066,32.85881 c 0,28.78579 -23.33485,52.12065 -52.12065,52.12065 -28.78579,0 -52.12065,-23.33486 -52.12065,-52.12065 0,-28.7858 23.33486,-52.12064 52.12065,-52.12064 28.7858,0 52.12065,23.33484 52.12065,52.12064 z"
         transform="matrix(1.3333333,0,0,-1.3333333,20.58,162.796)"
         clip-rule="evenodd"
         id="path10" /></clipPath><radialGradient
       fx="50.000641"
       fy="50.000641"
       cx="50.000641"
       cy="50.000641"
       r="50.000641"
       gradientUnits="userSpaceOnUse"
       id="radialGradient12"><stop
         style="stop-opacity:1;stop-color:#ff0000"
         offset="0"
         id="stop10" /><stop
         style="stop-opacity:1;stop-color:#ff9999"
         offset="0.5"
         id="stop11" /><stop
         style="stop-opacity:1;stop-color:#ff9999"
         offset="1"
         id="stop12" /></radialGradient><clipPath
       clipPathUnits="userSpaceOnUse"
       id="clipPath13"><path
         d="m 133.58527,-21.90587 c 0,13.28584 -10.77001,24.05583 -24.05587,24.05583 -13.28584,0 -24.05584,-10.76999 -24.05584,-24.05583 0,-13.28586 10.77,-24.05586 24.05584,-24.05586 13.28586,0 24.05587,10.77 24.05587,24.05586 z"
         transform="matrix(1.3333333,0,0,-1.3333333,20.58,162.796)"
         clip-rule="evenodd"
         id="path13" /></clipPath></defs><g
     id="layer1"
     transform="translate(-220.00004,5.8982677e-4)" /><g
     id="g1"
     transform="matrix(0.26458332,0,0,0.26458334,-2.5579621e-5,5.8982677e-4)"><g
       id="g3"
       clip-path="url(#clipPath4)"
       style="opacity:0.3"><path
         d="M 0,0 H 100 V 100 H 0 Z"
         transform="matrix(1.6039067,0,0,-1.6039067,-26.026507,196.25865)"
         style="fill:url(#radialGradient3);stroke:none"
         id="path3" /></g><g
       id="g6"
       clip-path="url(#clipPath7)"
       style="opacity:0.3"><path
         d="M 0,0 H 100 V 100 H 0 Z"
         transform="matrix(3.84936,0,0,-3.84936,32.56692,357.60065)"
         style="fill:url(#radialGradient6);stroke:none"
         id="path6" /></g><g
       id="g9"
       clip-path="url(#clipPath10)"
       style="opacity:0.3"><path
         d="M 0,0 H 100 V 100 H 0 Z"
         transform="matrix(2.7800933,0,0,-2.7800933,129.842,257.98892)"
         style="fill:url(#radialGradient9);stroke:none"
         id="path9" /></g><g
       id="g12"
       clip-path="url(#clipPath13)"
       style="opacity:0.3"><path
         d="M 0,0 H 100 V 100 H 0 Z"
         transform="matrix(1.28312,0,0,-1.28312,102.46319,256.15983)"
         style="fill:url(#radialGradient12);stroke:none"
         id="path12" /></g><path
       id="path14"
       d="m 21.90382,45.5075 c 0,0 43.81314,-198.85346 43.81314,-198.85346"
       style="fill:none;stroke:#00adef;stroke-width:1.59404;stroke-linecap:butt;stroke-linejoin:miter;stroke-miterlimit:10;stroke-dasharray:none;stroke-opacity:0.2"
       transform="matrix(1.3333333,0,0,-1.3333333,20.58,162.796)" /><path
       id="path15"
       d="m 21.90382,45.5075 c 0,0 140.85906,-198.85346 140.85906,-198.85346"
       style="fill:none;stroke:#00adef;stroke-width:1.59404;stroke-linecap:butt;stroke-linejoin:miter;stroke-miterlimit:10;stroke-dasharray:none;stroke-opacity:0.2"
       transform="matrix(1.3333333,0,0,-1.3333333,20.58,162.796)" /><path
       id="path16"
       d="m 7.22647,20.21214 c 0,0 58.49049,-173.5581 58.49049,-173.5581"
       style="fill:none;stroke:#00adef;stroke-width:1.59404;stroke-linecap:butt;stroke-linejoin:miter;stroke-miterlimit:10;stroke-dasharray:none;stroke-opacity:0.2"
       transform="matrix(1.3333333,0,0,-1.3333333,20.58,162.796)" /><path
       id="path17"
       d="m 7.22647,20.21214 c 0,0 155.53641,-173.5581 155.53641,-173.5581"
       style="fill:none;stroke:#00adef;stroke-width:1.59404;stroke-linecap:butt;stroke-linejoin:miter;stroke-miterlimit:10;stroke-dasharray:none;stroke-opacity:0.2"
       transform="matrix(1.3333333,0,0,-1.3333333,20.58,162.796)" /><path
       id="path18"
       d="m 36.36223,20.21214 c 0,0 29.35473,-173.5581 29.35473,-173.5581"
       style="fill:none;stroke:#00adef;stroke-width:1.59404;stroke-linecap:butt;stroke-linejoin:miter;stroke-miterlimit:10;stroke-dasharray:none;stroke-opacity:0.2"
       transform="matrix(1.3333333,0,0,-1.3333333,20.58,162.796)" /><path
       id="path19"
       d="m 36.36223,20.21214 c 0,0 126.40065,-173.5581 126.40065,-173.5581"
       style="fill:none;stroke:#00adef;stroke-width:1.59404;stroke-linecap:butt;stroke-linejoin:miter;stroke-miterlimit:10;stroke-dasharray:none;stroke-opacity:0.2"
       transform="matrix(1.3333333,0,0,-1.3333333,20.58,162.796)" /><path
       id="path20"
       d="m 186.20306,32.85982 c 0,0 -23.44018,-186.20578 -23.44018,-186.20578"
       style="fill:none;stroke:#00adef;stroke-width:1.59404;stroke-linecap:butt;stroke-linejoin:miter;stroke-miterlimit:10;stroke-dasharray:none;stroke-opacity:0.2"
       transform="matrix(1.3333333,0,0,-1.3333333,20.58,162.796)" /><path
       id="path21"
       d="m 219.06293,58.05223 c 0,0 -56.30005,-211.39819 -56.30005,-211.39819"
       style="fill:none;stroke:#00adef;stroke-width:1.59404;stroke-linecap:butt;stroke-linejoin:miter;stroke-miterlimit:10;stroke-dasharray:none;stroke-opacity:0.2"
       transform="matrix(1.3333333,0,0,-1.3333333,20.58,162.796)" /><path
       id="path22"
       d="m 109.53008,-21.90654 c 0,0 -43.81312,-131.43942 -43.81312,-131.43942"
       style="fill:none;stroke:#00adef;stroke-width:1.59404;stroke-linecap:butt;stroke-linejoin:miter;stroke-miterlimit:10;stroke-dasharray:none;stroke-opacity:0.2"
       transform="matrix(1.3333333,0,0,-1.3333333,20.58,162.796)" /><path
       id="path23"
       d="m 109.53008,-21.90654 c 0,0 53.2328,-131.43942 53.2328,-131.43942"
       style="fill:none;stroke:#00adef;stroke-width:1.59404;stroke-linecap:butt;stroke-linejoin:miter;stroke-miterlimit:10;stroke-dasharray:none;stroke-opacity:0.2"
       transform="matrix(1.3333333,0,0,-1.3333333,20.58,162.796)" /><path
       id="path24"
       d="m 43.59366,-175.48029 h 141.30508 v 44.25912 H 43.59366 Z"
       style="fill:#00adef;fill-opacity:0.075;fill-rule:nonzero;stroke:none"
       transform="matrix(1.3333333,0,0,-1.3333333,20.58,162.796)" /><path
       id="path25"
       d="m 9.4680859,-4.0301797 c 0,-2.0039062 -1.828125,-2.7539062 -3.5390625,-2.859375 0,-0.7617187 0.46875,-0.8085937 1.1132813,-0.8085937 V -7.9090859 H 2.8821484 v 0.2109375 c 0.6445313,0 1.1132813,0.046875 1.1132813,0.8085937 -1.7109375,0.1054688 -3.53906251,0.8554688 -3.53906251,2.859375 0,2.0273438 1.79296871,2.8125 3.53906251,2.8945313 0,0.83203121 -0.3515625,0.92578121 -1.1132813,0.92578121 v 0.2109375 h 4.1601563 v -0.2109375 c -0.7617188,0 -1.1132813,-0.09375 -1.1132813,-0.92578121 1.7460938,-0.082031 3.5390625,-0.8671875 3.5390625,-2.8945313 z m -1.8984375,0.058594 c 0,1.1367187 -0.3164062,2.3085937 -1.640625,2.390625 v -4.8515625 c 1.359375,0.035156 1.640625,1.3359375 1.640625,2.4609375 z m -3.5742187,2.390625 c -1.3359375,-0.082031 -1.640625,-1.2539063 -1.640625,-2.390625 0,-1.125 0.2695312,-2.4257813 1.640625,-2.4609375 z m 0,0"
       style="fill:#4384a1;fill-opacity:1;fill-rule:nonzero;stroke:none"
       aria-label="Φ"
       transform="matrix(1.3333333,0,0,1.3333333,84.426667,388.49467)" /><path
       id="path26"
       d="M -15.03642,-84.08308 H 248.49373 V 121.70017 H -15.03642 Z"
       style="fill:none;stroke:#000000;stroke-width:0.79701;stroke-linecap:butt;stroke-linejoin:miter;stroke-miterlimit:10;stroke-dasharray:none;stroke-opacity:1"
       transform="matrix(1.3333333,0,0,-1.3333333,20.58,162.796)" /><path
       id="path27"
       d="m 4.9574141,-7.7584687 c 1.5703125,0.082031 2.15625,1.1015625 2.203125,1.6640625 0.011719,0.1757812 0.023437,0.3515625 0.2109375,0.3515625 0.2226562,0 0.2226562,-0.1992188 0.2226562,-0.421875 v -1.59375 c 0,-0.421875 -0.046875,-0.4335938 -0.4101562,-0.4335938 H 0.78553906 c -0.36328125,0 -0.38671875,0.023437 -0.38671875,0.3867188 v 1.6875 c 0,0.1875 0,0.375 0.19921875,0.375 0.19921875,0 0.2109375,-0.2109375 0.2109375,-0.234375 0.046875,-0.9960938 0.94921874,-1.7109375 2.20312504,-1.78125 v 6.6445312 c 0,0.59765625 -0.046875,0.69140625 -0.796875,0.69140625 -0.1523438,0 -0.3632813,0 -0.3632813,0.2109375 0,0.2109375 0.1875,0.2109375 0.4101563,0.2109375 h 3.46875 c 0.2109375,0 0.3867187,0 0.3867187,-0.2109375 0,-0.2109375 -0.1992187,-0.2109375 -0.328125,-0.2109375 -0.7851562,0 -0.8320312,-0.0820313 -0.8320312,-0.69140625 z M 0.80897656,-7.7701875 H 1.5355391 c -0.3046875,0.1757813 -0.55078129,0.421875 -0.72656254,0.6210938 z m 6.36328124,0 V -7.137375 C 7.0433516,-7.3014375 6.7621016,-7.5709687 6.4456953,-7.7701875 Z m -3.84375,7.34765625 C 3.4339766,-0.63346875 3.4339766,-0.93815625 3.4339766,-1.0905 V -7.7701875 H 4.5472578 V -1.0905 c 0,0.15234375 0,0.45703125 0.1054688,0.66796875 z m 0,0"
       style="fill:#000000;fill-opacity:1;fill-rule:nonzero;stroke:none"
       aria-label="T"
       transform="matrix(1.3333333,0,0,1.3333333,8.5893333,267.204)" /><g
       id="g27"
       aria-label="Θ&#10;α"
       transform="matrix(1.3333333,0,0,1.3333333,26.592,68.641333)"><path
         id="path28"
         d="m 8.884125,-4.0200625 c 0,-2.6015625 -1.921875,-4.2421875 -4.2304687,-4.2421875 -2.3085938,0 -4.2304688,1.640625 -4.2304688,4.2421875 0,2.5078125 1.78125,4.2421875 4.2304688,4.2421875 2.4492187,0 4.2304687,-1.734375 4.2304687,-4.2421875 z m -2.1210937,0 c 0,1.0429687 -0.070312,3.85546875 -2.109375,3.85546875 -2.0507813,0 -2.1210938,-2.81250005 -2.1210938,-3.85546875 0,-1.7460938 0.4453125,-3.84375 2.1210938,-3.84375 1.6757812,0 2.109375,2.0976562 2.109375,3.84375 z M 5.884125,-2.44975 V -5.356 H 5.6614688 c 0,0.6796875 -0.4335938,0.75 -1.0078125,0.75 -0.5859375,0 -1.0078125,-0.058594 -1.0078125,-0.75 H 3.4231875 v 2.90625 h 0.2226563 c 0,-0.7734375 0.4921875,-0.7734375 1.1132812,-0.7734375 0.5273438,0 0.9023438,0.1992187 0.9023438,0.7734375 z m 0,0"
         style="fill:#ff4c4c;fill-opacity:1;fill-rule:nonzero;stroke:none" /><path
         id="path29"
         d="m 13.952484,-1.4770938 -0.550781,0.070312 c -0.210937,0.6210938 -0.84375,1.5585938 -0.84375,1.57031255 h -0.01172 c 0,-0.0117188 0.140625,-0.3515625 0.140625,-0.7734375 0,-0.52734375 -0.1875,-1.11328125 -1.03125,-1.11328125 -1.347656,0 -2.1679684,1.40625 -2.1679684,2.37890625 0,0.67968745 0.3632813,1.21874995 1.1953124,1.21874995 0.621094,0 1.101563,-0.4804687 1.101563,-0.4921875 h 0.01172 c 0,0.070312 0.01172,0.4804688 0.597657,0.4804688 0.632812,0 1.007812,-0.7148438 1.007812,-0.90234375 0,-0.0234375 0,-0.0351563 -0.02344,-0.0351563 -0.105469,0 -0.292969,0.65624995 -0.75,0.65624995 -0.175782,0 -0.222657,-0.1992188 -0.222657,-0.4101563 0,-0.17578115 0.02344,-0.36328115 0.05859,-0.43359365 0.105469,-0.15234375 1.488281,-2.21484385 1.488281,-2.21484385 z m -1.851562,0.91406255 c 0,0.76171875 -0.292969,1.62890625 -0.292969,1.64062495 0,0 -0.398437,0.5976563 -1.007812,0.5976563 -0.175782,0 -0.609375,-0.046875 -0.609375,-1.06640625 0,-0.41015625 0.210937,-2.13281255 1.324218,-2.13281255 0.539063,0 0.585938,0.67968755 0.585938,0.96093755 z m 0,0"
         style="fill:#ff4c4c;fill-opacity:1;fill-rule:nonzero;stroke:none" /></g><g
       id="g29"
       aria-label="Θ&#10;β"
       transform="matrix(1.3333333,0,0,1.3333333,239.61467,40.216)"><path
         id="path30"
         d="m 8.8817734,-4.0203984 c 0,-2.6015625 -1.921875,-4.2421875 -4.2304687,-4.2421875 -2.3085938,0 -4.23046876,1.640625 -4.23046876,4.2421875 0,2.5078125 1.78124996,4.24218746 4.23046876,4.24218746 2.4492187,0 4.2304687,-1.73437496 4.2304687,-4.24218746 z m -2.1210937,0 c 0,1.0429687 -0.070312,3.85546871 -2.109375,3.85546871 -2.0507813,0 -2.1210938,-2.81250001 -2.1210938,-3.85546871 0,-1.7460938 0.4453125,-3.84375 2.1210938,-3.84375 1.6757812,0 2.109375,2.0976562 2.109375,3.84375 z m -0.8789063,1.5703125 v -2.90625 H 5.6591172 c 0,0.6796875 -0.4335938,0.75 -1.0078125,0.75 -0.5859375,0 -1.0078125,-0.058594 -1.0078125,-0.75 H 3.4208359 v 2.90625 h 0.2226563 c 0,-0.7734375 0.4921875,-0.7734375 1.1132812,-0.7734375 0.5273438,0 0.9023438,0.1992187 0.9023438,0.7734375 z m 0,0"
         style="fill:#ff4c4c;fill-opacity:1;fill-rule:nonzero;stroke:none" /><path
         id="path31"
         d="m 13.32025,-2.50575 c 0,-0.6328125 -0.503906,-0.9140625 -1.171875,-0.9140625 -0.84375,0 -1.664062,0.5625 -1.886719,1.3710937 L 9.0429063,2.3926875 C 8.914,2.8965937 8.6093125,3.3419062 8.5272813,3.447375 H 9.242125 c 0,0 0.1289063,-0.070312 0.3984375,-1.0664063 L 9.9100938,1.3614375 c 0,0 0.2695312,0.5742187 1.0664062,0.5742187 1.195313,0 2.003906,-0.9023437 2.003906,-1.8164062 0,-0.99609375 -0.902343,-1.1484375 -0.902343,-1.1484375 v -0.023437 c 0,0 1.242187,-0.2929688 1.242187,-1.4531255 z m -0.621094,-0.023437 c 0,0.375 -0.210937,1.2773437 -0.84375,1.2773437 -0.175781,0 -0.304687,-0.035156 -0.421875,-0.035156 -0.222656,0 -0.375,0.1757812 -0.375,0.328125 0,0.0820313 0.07031,0.15234375 0.210938,0.15234375 0.222656,0 0.28125,-0.0351563 0.457031,-0.0351563 0.398438,0 0.574219,0.43359375 0.574219,0.87890625 0,0.796875 -0.46875,1.5234375 -1.324219,1.5234375 -0.539062,0 -0.890625,-0.28125 -0.890625,-0.73828125 0,-0.09375 0.01172,-0.19921875 0.04687,-0.3046875 l 0.714844,-2.56640625 c 0.140625,-0.515625 0.503906,-1.1484375 1.230469,-1.1484375 0.445312,0 0.621093,0.3046875 0.621093,0.6679688 z m 0,0"
         style="fill:#ff4c4c;fill-opacity:1;fill-rule:nonzero;stroke:none" /></g><g
       id="g31"
       aria-label="Θ&#10;γ"
       transform="matrix(1.3333333,0,0,1.3333333,140.40133,150.51467)"><path
         id="path32"
         d="m 8.8835703,-4.0188125 c 0,-2.6015625 -1.921875,-4.2421875 -4.2304687,-4.2421875 -2.3085938,0 -4.23046879,1.640625 -4.23046879,4.2421875 0,2.5078125 1.78124999,4.2421875 4.23046879,4.2421875 2.4492187,0 4.2304687,-1.734375 4.2304687,-4.2421875 z m -2.1210937,0 c 0,1.0429688 -0.070312,3.85546875 -2.109375,3.85546875 -2.0507813,0 -2.1210938,-2.81249995 -2.1210938,-3.85546875 0,-1.7460937 0.4453125,-3.84375 2.1210938,-3.84375 1.6757812,0 2.109375,2.0976563 2.109375,3.84375 z M 5.8835703,-2.4485 V -5.35475 H 5.6609141 c 0,0.6796875 -0.4335938,0.75 -1.0078125,0.75 -0.5859375,0 -1.0078125,-0.058594 -1.0078125,-0.75 H 3.4226328 v 2.90625 h 0.2226563 c 0,-0.7734375 0.4921875,-0.7734375 1.1132812,-0.7734375 0.5273438,0 0.9023438,0.1992188 0.9023438,0.7734375 z m 0,0"
         style="fill:#ff4c4c;fill-opacity:1;fill-rule:nonzero;stroke:none" /><path
         id="path33"
         d="m 13.530055,-1.7102187 -0.585938,0.1171875 c -0.363281,0.8554687 -0.796875,1.71093745 -1.347656,2.46093745 0.03516,-0.78515625 0.08203,-2.58984375 -1.054688,-2.58984375 -0.527343,0 -1.2187496,0.7148438 -1.2187496,1.18359375 0,0.0234375 0.011719,0.0585938 0.035156,0.0585938 0.1757812,0 0.1640625,-0.67968745 0.9492186,-0.67968745 0.820313,0 0.867188,1.6289062 0.867188,2.2148438 0,0.1992187 -0.01172,0.3867187 -0.01172,0.5859375 -0.269531,0.3515625 -0.914062,1.1601562 -0.914062,1.59375 0,0.140625 0.05859,0.2109375 0.210937,0.2109375 0.667969,0 0.785156,-1.359375 0.996094,-1.8164063 0.140625,-0.2695312 0.46875,-0.6679688 0.65625,-0.93750005 0.527344,-0.75 1.101562,-1.53515625 1.417969,-2.40234365 z m 0,0"
         style="fill:#ff4c4c;fill-opacity:1;fill-rule:nonzero;stroke:none" /></g><g
       id="g33"
       aria-label="Θ&#10;δ"
       transform="matrix(1.3333333,0,0,1.3333333,193.92933,59.416)"><path
         id="path34"
         d="m 8.8830781,-4.0209844 c 0,-2.6015625 -1.921875,-4.2421875 -4.2304687,-4.2421875 -2.3085938,0 -4.23046878,1.640625 -4.23046878,4.2421875 0,2.5078125 1.78124998,4.24218753 4.23046878,4.24218753 2.4492187,0 4.2304687,-1.73437503 4.2304687,-4.24218753 z m -2.1210937,0 c 0,1.0429688 -0.070312,3.85546878 -2.109375,3.85546878 -2.0507813,0 -2.1210938,-2.81249998 -2.1210938,-3.85546878 0,-1.7460937 0.4453125,-3.84375 2.1210938,-3.84375 1.6757812,0 2.109375,2.0976563 2.109375,3.84375 z m -0.8789063,1.5703125 v -2.90625 H 5.6604219 c 0,0.6796875 -0.4335938,0.75 -1.0078125,0.75 -0.5859375,0 -1.0078125,-0.058594 -1.0078125,-0.75 H 3.4221406 v 2.90625 h 0.2226563 c 0,-0.7734375 0.4921875,-0.7734375 1.1132812,-0.7734375 0.5273438,0 0.9023438,0.1992188 0.9023438,0.7734375 z m 0,0"
         style="fill:#ff4c4c;fill-opacity:1;fill-rule:nonzero;stroke:none" /><path
         id="path35"
         d="m 12.981711,-2.9868047 c 0,-0.2460937 -0.363281,-0.4570312 -1.019531,-0.4570312 -0.632813,0 -1.148438,0.3632812 -1.148438,0.84375 0,0.5273437 0.539063,1.1015625 0.539063,1.1132812 0,0 -1.9101566,0.3046875 -1.9101566,2.12109376 0,0.53906254 0.28125,1.27734374 1.0898436,1.27734374 1.125,0 2.027344,-1.03124999 2.027344,-2.33203124 0,-1.32421876 -1.453125,-1.48828126 -1.453125,-2.26171876 0,-0.3632812 0.421875,-0.515625 0.679687,-0.515625 0.75,0 0.585938,0.4570313 0.914063,0.4570313 0.175781,0 0.28125,-0.1054688 0.28125,-0.2460938 z m -1.054688,2.82421876 c 0,1.03125 -0.667968,1.87500004 -1.207031,1.87500004 -0.445312,0 -0.609375,-0.609375 -0.609375,-1.05468754 0,-1.83984376 1.394531,-1.98046876 1.394531,-1.98046876 0,0.011719 0.421875,0.51562501 0.421875,1.16015626 z m 0,0"
         style="fill:#ff4c4c;fill-opacity:1;fill-rule:nonzero;stroke:none" /></g><path
       id="path36"
       d="m 23.9106,45.5061 c 0,1.10717 -0.89755,2.00472 -2.00473,2.00472 -1.10717,0 -2.00472,-0.89755 -2.00472,-2.00472 0,-1.10717 0.89755,-2.00473 2.00472,-2.00473 1.10718,0 2.00473,0.89756 2.00473,2.00473 z"
       style="fill:#000000;fill-opacity:1;fill-rule:nonzero;stroke:none"
       transform="matrix(1.3333333,0,0,-1.3333333,20.58,162.796)" /><g
       id="g36"
       aria-label="θ&#10;a"
       transform="matrix(1.3333333,0,0,1.3333333,43.3,92.017333)"><path
         id="path37"
         d="m 5.4146484,-5.778625 c 0,-0.234375 -0.023437,-2.0390625 -1.4414062,-2.0390625 -2.1210938,0 -3.62109376,3.3164062 -3.62109376,5.6132812 0,0.4335938 0.0703125,2.3320313 1.58203126,2.3320313 2.3789062,0 3.4804687,-4.0664063 3.4804687,-5.90625 z M 4.6294922,-6.4700313 c 0,0.6445313 -0.1757813,1.5351563 -0.4101563,2.4960938 H 1.6294922 c 0.421875,-1.734375 1.1835937,-3.5976563 2.3320312,-3.5976563 0.46875,0 0.6679688,0.421875 0.6679688,1.1015625 z m -0.5273438,2.9296875 c -0.375,1.3945313 -0.7851562,3.4101563 -1.9921875,3.4101563 -0.6679687,0 -0.9023437,-0.57421875 -0.9023437,-1.3828125 0,-0.5859375 0.1289062,-1.3007813 0.3046875,-2.0273438 z m 0,0"
         style="fill:#000000;fill-opacity:1;fill-rule:nonzero;stroke:none" /><path
         id="path38"
         d="M 8.9507813,0.91278125 C 8.821875,1.0299687 8.775,1.0768437 8.7164063,1.1354375 8.4820313,1.3815312 8.3765625,1.4635625 8.30625,1.4635625 c -0.058594,0 -0.1054687,-0.046875 -0.1054687,-0.1054688 0,-0.1523437 0.328125,-1.52343745 0.703125,-2.8945312 0.023437,-0.070312 0.035156,-0.09375 0.046875,-0.1640625 l -0.058594,-0.023437 -0.4804687,0.058594 -0.023437,0.023437 -0.09375,0.3867188 c -0.058594,-0.3046875 -0.2929688,-0.46875 -0.6328125,-0.46875 -1.0546875,0 -2.2734375,1.46484375 -2.2734375,2.71875 0,0.5625 0.2929687,0.8789062 0.8085937,0.8789062 0.5625,0 0.9023438,-0.2578125 1.6054688,-1.24218745 -0.1640625,0.62109375 -0.1875,0.72656245 -0.1875,0.91406245 0,0.234375 0.09375,0.328125 0.3164062,0.328125 0.3164063,0 0.515625,-0.1523437 1.1132813,-0.8789062 z M 7.7085938,-1.5481563 c 0.2695312,0.011719 0.4453125,0.2109375 0.4453125,0.4921875 C 8.1539063,-0.388 7.7554688,0.5495 7.2046875,1.1354375 7.0171875,1.3580937 6.7476563,1.487 6.5132813,1.487 6.2320313,1.487 6.05625,1.252625 6.05625,0.88934375 6.05625,0.45575 6.3609375,-0.3645625 6.7007813,-0.85675 7.0171875,-1.3137813 7.3921875,-1.5715938 7.7085938,-1.5481563 Z m 0,0"
         style="fill:#000000;fill-opacity:1;fill-rule:nonzero;stroke:none" /></g><path
       id="path39"
       d="m 9.23367,20.21152 c 0,1.10718 -0.89753,2.00471 -2.00471,2.00471 -1.10718,0 -2.00472,-0.89753 -2.00472,-2.00471 0,-1.10717 0.89754,-2.00472 2.00472,-2.00472 1.10718,0 2.00471,0.89755 2.00471,2.00472 z"
       style="fill:#000000;fill-opacity:1;fill-rule:nonzero;stroke:none"
       transform="matrix(1.3333333,0,0,-1.3333333,20.58,162.796)" /><g
       id="g39"
       aria-label="θ&#10;b"
       transform="matrix(1.3333333,0,0,1.3333333,23.730667,125.744)"><path
         id="path40"
         d="m 5.4139141,-5.7787031 c 0,-0.234375 -0.023437,-2.0390625 -1.4414063,-2.0390625 -2.1210937,0 -3.62109374,3.3164062 -3.62109374,5.6132812 0,0.4335938 0.0703125,2.33203127 1.58203124,2.33203127 2.3789063,0 3.4804688,-4.06640627 3.4804688,-5.90624997 z M 4.6287578,-6.4701094 c 0,0.6445313 -0.1757812,1.5351563 -0.4101562,2.4960938 H 1.6287578 c 0.421875,-1.734375 1.1835938,-3.5976563 2.3320313,-3.5976563 0.46875,0 0.6679687,0.421875 0.6679687,1.1015625 z m -0.5273437,2.9296875 c -0.375,1.3945313 -0.7851563,3.41015627 -1.9921875,3.41015627 -0.6679688,0 -0.9023438,-0.57421875 -0.9023438,-1.38281247 0,-0.5859375 0.1289063,-1.3007813 0.3046875,-2.0273438 z m 0,0"
         style="fill:#000000;fill-opacity:1;fill-rule:nonzero;stroke:none" /><path
         id="path41"
         d="m 6.1258281,-3.3265547 c 0.46875,0.011719 0.515625,0.035156 0.515625,0.2109375 0,0.070312 -0.023437,0.1640625 -0.070312,0.3398438 -0.011719,0.058594 -0.035156,0.1171875 -0.046875,0.1523437 l -0.011719,0.058594 -1.078125,3.9960937 v 0.023437 c 0,0.1875 0.609375,0.421875 1.0546875,0.421875 1.2070312,0 2.53125,-1.39453124 2.53125,-2.63671874 0,-0.56249996 -0.3984375,-0.96093746 -0.9257813,-0.96093746 -0.5625,0 -0.9726562,0.328125 -1.5351562,1.20703121 C 6.9695783,-2.0257737 7.0281721,-2.24843 7.3797346,-3.607805 l -0.035156,-0.035156 c -0.3984375,0.070312 -0.6914062,0.1171875 -1.21875,0.1757812 z m 1.6523438,1.9921875 c 0.3398437,0 0.5625,0.2695313 0.5625,0.69140626 0,0.52734375 -0.4101563,1.3828125 -0.8789063,1.87500004 -0.2929687,0.3046875 -0.6328125,0.46875 -0.984375,0.46875 -0.2460937,0 -0.3632812,-0.09375 -0.3632812,-0.2695313 0,-0.48046874 0.2460937,-1.25390624 0.5742187,-1.83984374 C 7.0398906,-1.0296797 7.4031719,-1.3343672 7.7781719,-1.3343672 Z m 0,0"
         style="fill:#000000;fill-opacity:1;fill-rule:nonzero;stroke:none" /></g><path
       id="path42"
       d="m 38.36855,20.21152 c 0,1.10718 -0.89755,2.00471 -2.00472,2.00471 -1.10718,0 -2.00471,-0.89753 -2.00471,-2.00471 0,-1.10717 0.89753,-2.00472 2.00471,-2.00472 1.10717,0 2.00472,0.89755 2.00472,2.00472 z"
       style="fill:#000000;fill-opacity:1;fill-rule:nonzero;stroke:none"
       transform="matrix(1.3333333,0,0,-1.3333333,20.58,162.796)" /><g
       id="g42"
       aria-label="θ&#10;c"
       transform="matrix(1.3333333,0,0,1.3333333,75.228,126.13867)"><path
         id="path43"
         d="m 5.4129844,-5.7788047 c 0,-0.234375 -0.023437,-2.0390625 -1.4414063,-2.0390625 -2.1210937,0 -3.62109372,3.3164063 -3.62109372,5.6132813 0,0.4335937 0.0703125,2.33203121 1.58203122,2.33203121 2.3789063,0 3.4804688,-4.06640621 3.4804688,-5.90625001 z M 4.6278281,-6.4702109 c 0,0.6445312 -0.1757812,1.5351562 -0.4101562,2.4960937 H 1.6278281 c 0.421875,-1.734375 1.1835938,-3.5976562 2.3320313,-3.5976562 0.46875,0 0.6679687,0.421875 0.6679687,1.1015625 z m -0.5273437,2.9296875 c -0.375,1.3945312 -0.7851563,3.41015621 -1.9921875,3.41015621 -0.6679688,0 -0.9023438,-0.57421875 -0.9023438,-1.38281251 0,-0.5859375 0.1289063,-1.3007812 0.3046875,-2.0273437 z m 0,0"
         style="fill:#000000;fill-opacity:1;fill-rule:nonzero;stroke:none" /><path
         id="path44"
         d="m 8.0379844,0.9506875 c -0.4335938,0.46875 -0.75,0.6445313 -1.1367188,0.6445313 -0.4570312,0 -0.7265625,-0.3398438 -0.7265625,-0.91406255 0,-0.66796875 0.28125,-1.3828125 0.7265625,-1.85156245 0.2226563,-0.234375 0.5507813,-0.3867188 0.8554688,-0.3867188 0.1875,0 0.3046875,0.070312 0.3046875,0.1640625 0,0.035156 -0.011719,0.082031 -0.046875,0.1523438 -0.058594,0.1054687 -0.070312,0.1640625 -0.070312,0.234375 0,0.18749995 0.1171875,0.2929687 0.3046875,0.2929687 0.2226562,0 0.3867187,-0.15234375 0.3867187,-0.3632812 0,-0.3632813 -0.3632812,-0.6445313 -0.8320312,-0.6445313 -1.1953125,0 -2.3203125,1.16015625 -2.3203125,2.40234375 0,0.76171875 0.4335937,1.19531255 1.171875,1.19531255 0.5976562,0 1.03125,-0.2460938 1.5117187,-0.84375 z m 0,0"
         style="fill:#000000;fill-opacity:1;fill-rule:nonzero;stroke:none" /></g><path
       id="path45"
       d="m 188.20473,32.85881 c 0,1.10718 -0.89754,2.00472 -2.00472,2.00472 -1.10718,0 -2.00471,-0.89754 -2.00471,-2.00472 0,-1.10718 0.89753,-2.00471 2.00471,-2.00471 1.10718,0 2.00472,0.89753 2.00472,2.00471 z"
       style="fill:#000000;fill-opacity:1;fill-rule:nonzero;stroke:none"
       transform="matrix(1.3333333,0,0,-1.3333333,20.58,162.796)" /><g
       id="g45"
       aria-label="θ&#10;d"
       transform="matrix(1.3333333,0,0,1.3333333,250.38533,108.83067)"><path
         id="path46"
         d="m 5.4151016,-5.7763203 c 0,-0.234375 -0.023437,-2.0390625 -1.4414063,-2.0390625 -2.1210937,0 -3.62109374,3.3164062 -3.62109374,5.6132812 0,0.4335938 0.0703125,2.33203129 1.58203124,2.33203129 2.3789063,0 3.4804688,-4.06640629 3.4804688,-5.90624999 z M 4.6299453,-6.4677266 c 0,0.6445313 -0.1757812,1.5351563 -0.4101562,2.4960938 H 1.6299453 c 0.421875,-1.734375 1.1835938,-3.5976563 2.3320313,-3.5976563 0.46875,0 0.6679687,0.421875 0.6679687,1.1015625 z m -0.5273437,2.9296875 c -0.375,1.3945313 -0.7851563,3.41015629 -1.9921875,3.41015629 -0.6679688,0 -0.9023438,-0.57421875 -0.9023438,-1.38281249 0,-0.5859375 0.1289063,-1.3007813 0.3046875,-2.0273438 z m 0,0"
         style="fill:#000000;fill-opacity:1;fill-rule:nonzero;stroke:none" /><path
         id="path47"
         d="M 8.9395156,0.91508594 C 8.5059219,1.4072734 8.4238906,1.4775859 8.2832656,1.4775859 c -0.082031,0 -0.140625,-0.070312 -0.140625,-0.1640625 0,-0.1054687 0.2578125,-1.07812496 0.515625,-1.95703121 C 8.8692031,-1.3817891 9.0449844,-2.0146016 9.4434219,-3.6083516 l -0.035156,-0.035156 c -0.421875,0.082031 -0.7148437,0.1289062 -1.21875,0.1757812 v 0.140625 c 0.4335938,0.011719 0.4921875,0.035156 0.4921875,0.1992188 0,0.1054687 -0.011719,0.1523437 -0.1171875,0.5625 l -0.3515625,1.3125 c -0.058594,-0.3398438 -0.2109375,-0.46875 -0.515625,-0.46875 -1.0429687,0 -2.3320312,1.49999999 -2.3320312,2.69531249 0,0.56250001 0.3164062,0.90234371 0.84375,0.90234371 0.5390625,0 0.890625,-0.2460937 1.4296875,-1.04296871 C 7.5567031,1.2314922 7.5332656,1.3603984 7.5332656,1.5361797 c 0,0.2226562 0.140625,0.3632812 0.3398438,0.3632812 0.328125,0 0.75,-0.328125 1.1601562,-0.91406246 z m -1.21875,-2.44921874 c 0.2460938,0.011719 0.3632813,0.1640625 0.3632813,0.4570312 0,1.20703129 -0.8320313,2.578125 -1.5585938,2.578125 -0.2695312,0 -0.46875,-0.2226562 -0.46875,-0.52734371 0,-0.65625 0.3984375,-1.58203125 0.9257813,-2.14453129 0.2226562,-0.234375 0.515625,-0.3867187 0.7382812,-0.3632812 z m 0,0"
         style="fill:#000000;fill-opacity:1;fill-rule:nonzero;stroke:none" /></g><path
       id="path48"
       d="m 111.53412,-21.90587 c 0,1.10717 -0.89754,2.00472 -2.00472,2.00472 -1.10716,0 -2.00471,-0.89755 -2.00471,-2.00472 0,-1.10718 0.89755,-2.00473 2.00471,-2.00473 1.10718,0 2.00472,0.89755 2.00472,2.00473 z"
       style="fill:#000000;fill-opacity:1;fill-rule:nonzero;stroke:none"
       transform="matrix(1.3333333,0,0,-1.3333333,20.58,162.796)" /><g
       id="g48"
       aria-label="θ&#10;e"
       transform="matrix(1.3333333,0,0,1.3333333,149.03867,181.94667)"><path
         id="path49"
         d="m 5.4143594,-5.7783594 c 0,-0.234375 -0.023437,-2.0390625 -1.4414063,-2.0390625 -2.1210937,0 -3.62109372,3.3164063 -3.62109372,5.6132813 0,0.4335937 0.0703125,2.33203122 1.58203122,2.33203122 2.3789063,0 3.4804688,-4.06640622 3.4804688,-5.90625002 z M 4.6292031,-6.4697656 c 0,0.6445312 -0.1757812,1.5351562 -0.4101562,2.4960937 H 1.6292031 c 0.421875,-1.734375 1.1835938,-3.5976562 2.3320313,-3.5976562 0.46875,0 0.6679687,0.421875 0.6679687,1.1015625 z m -0.5273437,2.9296875 c -0.375,1.3945312 -0.7851563,3.41015622 -1.9921875,3.41015622 -0.6679688,0 -0.9023438,-0.57421875 -0.9023438,-1.38281252 0,-0.5859375 0.1289063,-1.3007812 0.3046875,-2.0273437 z m 0,0"
         style="fill:#000000;fill-opacity:1;fill-rule:nonzero;stroke:none" /><path
         id="path50"
         d="M 8.0950234,0.92476562 C 7.5208047,1.3935156 7.2747109,1.5224219 6.9348672,1.5224219 c -0.4570313,0 -0.75,-0.2929688 -0.75,-0.71484378 0,-0.12890625 0.023437,-0.24609375 0.082031,-0.4921875 L 6.4895545,0.28023432 C 7.684867,0.11617182 8.528617,-0.49320318 8.528617,-1.1846094 c 0,-0.328125 -0.234375,-0.5390625 -0.6328125,-0.5390625 -1.1484375,0 -2.4023438,1.31249997 -2.4023438,2.50781247 0,0.64453123 0.4335938,1.08984373 1.0546875,1.08984373 0.5625,0 1.171875,-0.3164063 1.6523438,-0.8554688 z m -1.640625,-1.13671875 c 0.2695313,-0.71484375 0.8671875,-1.32421877 1.265625,-1.32421877 0.1757813,0 0.28125,0.1289063 0.28125,0.3046875 0,0.24609377 -0.1523437,0.53906252 -0.3984375,0.77343752 -0.2929687,0.28125 -0.5976562,0.421875 -1.2773437,0.59765625 z m 0,0"
         style="fill:#000000;fill-opacity:1;fill-rule:nonzero;stroke:none" /></g><path
       id="path51"
       d="m 221.06355,58.05043 c 0,1.10718 -0.89753,2.00472 -2.00471,2.00472 -1.10716,0 -2.00472,-0.89754 -2.00472,-2.00472 0,-1.10718 0.89756,-2.00471 2.00472,-2.00471 1.10718,0 2.00471,0.89753 2.00471,2.00471 z"
       style="fill:#000000;fill-opacity:1;fill-rule:nonzero;stroke:none"
       transform="matrix(1.3333333,0,0,-1.3333333,20.58,162.796)" /><g
       id="g51"
       aria-label="θ&#10;f"
       transform="matrix(1.3333333,0,0,1.3333333,291.27067,88.312)"><path
         id="path52"
         d="m 5.4132109,-5.7769688 c 0,-0.234375 -0.023437,-2.0390625 -1.4414062,-2.0390625 -2.1210938,0 -3.62109376,3.3164063 -3.62109376,5.6132813 0,0.4335937 0.0703125,2.33203125 1.58203126,2.33203125 2.3789062,0 3.4804687,-4.06640625 3.4804687,-5.90625005 z M 4.6280547,-6.468375 c 0,0.6445312 -0.1757813,1.5351562 -0.4101563,2.4960937 H 1.6280547 c 0.421875,-1.734375 1.1835937,-3.5976562 2.3320312,-3.5976562 0.46875,0 0.6679688,0.421875 0.6679688,1.1015625 z m -0.5273438,2.9296875 c -0.375,1.3945312 -0.7851562,3.41015625 -1.9921875,3.41015625 -0.6679687,0 -0.9023437,-0.57421875 -0.9023437,-1.38281255 0,-0.5859375 0.1289062,-1.3007812 0.3046875,-2.0273437 z m 0,0"
         style="fill:#000000;fill-opacity:1;fill-rule:nonzero;stroke:none" /><path
         id="path53"
         d="M 6.7257109,-1.359 H 7.4405547 L 6.7374297,1.9808437 C 6.5616484,2.8363125 6.3038359,3.2699062 5.9639922,3.2699062 c -0.09375,0 -0.1523438,-0.046875 -0.1523438,-0.1171875 0,-0.023437 0,-0.046875 0.023437,-0.09375 0.035156,-0.046875 0.046875,-0.082031 0.046875,-0.1289062 0,-0.1640625 -0.1523437,-0.3046875 -0.3164062,-0.3046875 -0.1640625,0 -0.2929688,0.1523437 -0.2929688,0.328125 0,0.2695312 0.28125,0.4921875 0.6328125,0.4921875 0.703125,0 1.265625,-0.796875 1.59375,-2.2617188 L 8.0733672,-1.359 h 0.8671875 l 0.046875,-0.2578125 H 8.1202422 c 0.234375,-1.2539063 0.5273437,-1.8164063 0.9726562,-1.8164063 0.1054688,0 0.1757813,0.035156 0.1757813,0.09375 0,0.023437 0,0.035156 -0.023437,0.082031 -0.035156,0.070312 -0.046875,0.1054687 -0.046875,0.1640625 0,0.1875 0.1171875,0.3164062 0.2929687,0.3164062 0.1757813,0 0.328125,-0.140625 0.328125,-0.3164062 0,-0.2929688 -0.2929687,-0.515625 -0.6796875,-0.515625 -0.3867187,0 -0.703125,0.1757812 -0.984375,0.5507812 -0.2460937,0.3046875 -0.3984375,0.6796875 -0.6445312,1.4414063 h -0.726563 z m 0,0"
         style="fill:#000000;fill-opacity:1;fill-rule:nonzero;stroke:none" /></g><path
       id="path54"
       d="m 67.72235,-153.34119 c 0,1.10717 -0.89754,2.00472 -2.00471,2.00472 -1.10717,0 -2.00472,-0.89755 -2.00472,-2.00472 0,-1.10717 0.89755,-2.00471 2.00472,-2.00471 1.10717,0 2.00471,0.89754 2.00471,2.00471 z"
       style="fill:#00adef;fill-opacity:1;fill-rule:nonzero;stroke:none"
       transform="matrix(1.3333333,0,0,-1.3333333,20.58,162.796)" /><g
       id="g54"
       aria-label="ϕ&#10;i"
       transform="matrix(1.3333333,0,0,1.3333333,115.836,370.61067)"><path
         id="path55"
         d="m 6.2812031,-3.4814375 c 0,-0.8671875 -0.6445312,-1.6171875 -1.8398437,-1.7695313 L 5.1562031,-7.536125 4.1601094,-7.3720625 3.6210469,-5.23925 c -1.875,0.1992187 -3.33984377,1.7460937 -3.33984377,3.515625 0,0.890625 0.48046875,1.76953125 2.01562497,1.8515625 l -0.5625,2.34375 h 0.2929688 l 0.75,-2.35546875 C 4.7343281,-0.036125 6.2812031,-1.7119063 6.2812031,-3.4814375 Z m -0.9609375,-0.09375 c 0,2.0273437 -1.265625,3.2578125 -2.4375,3.375 L 4.3241719,-4.8759688 C 5.1562031,-4.583 5.3202656,-3.8681563 5.3202656,-3.5751875 Z m -1.78125,-1.3359375 -1.1601562,4.6875 C 1.5819844,-0.458 1.2890156,-1.1845625 1.2890156,-1.6884688 c 0,-1.8398437 1.0078125,-3.0585937 2.25,-3.2226562 z m 0,0"
         style="fill:#4384a1;fill-opacity:1;fill-rule:nonzero;stroke:none" /><path
         id="path56"
         d="M 8.3466328,0.8779375 C 8.1591328,1.13575 8.1005391,1.2060625 8.0185078,1.2880937 7.8896016,1.4287187 7.7606953,1.51075 7.6903828,1.51075 c -0.058594,0 -0.1289062,-0.070312 -0.1289062,-0.1289063 0,-0.070312 0.023437,-0.1992187 0.082031,-0.3515625 0,-0.023437 0.023437,-0.0703124 0.046875,-0.14062495 V 0.8545 l 0.703125,-2.5664063 -0.023437,-0.011719 c -0.808594,0.152344 -0.9609378,0.1757815 -1.277344,0.199219 V -1.3955 c 0.421875,0.011719 0.5039062,0.035156 0.5039062,0.1875 0,0.070312 -0.023437,0.1992187 -0.070312,0.3515625 L 7.1396016,0.56153125 C 7.0106953,1.0185625 6.9638203,1.2646562 6.9638203,1.4287187 c 0,0.2929688 0.1289063,0.4453125 0.375,0.4453125 0.3632813,0 0.65625,-0.234375 1.1132813,-0.9023437 z m -0.058594,-4.3007813 c -0.2226563,0 -0.375,0.1875 -0.375,0.421875 0,0.2578125 0.140625,0.421875 0.375,0.421875 0.2109375,0 0.3984375,-0.1757812 0.3984375,-0.3984375 0,-0.234375 -0.1875,-0.4453125 -0.3984375,-0.4453125 z m 0,0"
         style="fill:#4384a1;fill-opacity:1;fill-rule:nonzero;stroke:none" /></g><path
       id="path57"
       d="m 164.76527,-153.34119 c 0,1.10717 -0.89755,2.00472 -2.00471,2.00472 -1.10718,0 -2.00473,-0.89755 -2.00473,-2.00472 0,-1.10717 0.89755,-2.00471 2.00473,-2.00471 1.10716,0 2.00471,0.89754 2.00471,2.00471 z"
       style="fill:#00adef;fill-opacity:1;fill-rule:nonzero;stroke:none"
       transform="matrix(1.3333333,0,0,-1.3333333,20.58,162.796)" /><g
       id="g57"
       aria-label="ϕ&#10;j"
       transform="matrix(1.3333333,0,0,1.3333333,245.22933,369.96133)"><path
         id="path58"
         d="m 6.2821016,-3.4807656 c 0,-0.8671875 -0.6445313,-1.6171875 -1.8398438,-1.7695313 l 0.7148438,-2.2851562 -0.9960938,0.1640625 -0.5390625,2.1328125 c -1.875,0.1992187 -3.33984374,1.7460937 -3.33984374,3.515625 0,0.89062497 0.48046875,1.76953122 2.01562504,1.85156247 l -0.5625,2.34375003 h 0.2929687 l 0.75,-2.35546878 C 4.7352266,-0.03545313 6.2821016,-1.7112344 6.2821016,-3.4807656 Z m -0.9609375,-0.09375 c 0,2.0273437 -1.265625,3.25781247 -2.4375,3.37499997 L 4.3250703,-4.8752969 c 0.8320313,0.2929688 0.9960938,1.0078125 0.9960938,1.3007813 z m -1.78125,-1.3359375 -1.1601563,4.68749997 c -0.796875,-0.234375 -1.0898437,-0.96093747 -1.0898437,-1.46484377 0,-1.8398437 1.0078125,-3.0585937 2.25,-3.2226562 z m 0,0"
         style="fill:#4384a1;fill-opacity:1;fill-rule:nonzero;stroke:none" /><path
         id="path59"
         d="m 9.7274141,-1.7112344 -0.023437,-0.011719 c -0.703125,0.1289062 -1.1015625,0.1875 -1.3476563,0.1992187 v 0.1289063 h 0.2109375 l 0.058594,-0.011719 c 0.058594,0 0.2226562,0.046875 0.2578125,0.070312 0.035156,0.035156 0.058594,0.1054688 0.058594,0.1875 0,0.082031 -0.035156,0.29296877 -0.1289062,0.63281252 L 8.2391328,1.8161094 C 7.9696016,2.9059531 7.7821016,3.2575156 7.4656953,3.2575156 c -0.09375,0 -0.140625,-0.035156 -0.140625,-0.082031 0,-0.035156 0.011719,-0.046875 0.035156,-0.09375 0.046875,-0.058594 0.070312,-0.1054688 0.070312,-0.1640625 0,-0.1640625 -0.140625,-0.2929688 -0.328125,-0.2929688 -0.1875,0 -0.3164063,0.140625 -0.3164063,0.328125 0,0.28125 0.2578125,0.4921875 0.6210938,0.4921875 0.703125,0 1.171875,-0.609375 1.5,-1.875 z M 9.5750703,-3.4221719 c -0.2226562,0 -0.375,0.1757813 -0.375,0.421875 0,0.2578125 0.1523438,0.421875 0.375,0.421875 0.2109375,0 0.3984375,-0.1757812 0.3984375,-0.3984375 0,-0.234375 -0.1875,-0.4453125 -0.3984375,-0.4453125 z m 0,0"
         style="fill:#4384a1;fill-opacity:1;fill-rule:nonzero;stroke:none" /></g></g></svg>
