<svg xmlns="http://www.w3.org/2000/svg" width="64" height="64" viewBox="0 0 64 64"><path fill="#3C3F42" d="M64 60c0 2.21-1.79 4-4 4H4c-2.21 0-4-1.79-4-4V4c0-2.21 1.79-4 4-4h56c2.21 0 4 1.79 4 4v56z"/><path fill-rule="evenodd" clip-rule="evenodd" fill="#FFF" d="M26.977 18.375L25.39 14.36h9.26l3.815 9.57c2.84 7.113 5.72 14.21 8.486 21.35.638 1.645 1.505 2.732 3.395 2.806V50h-16.56v-1.79c.716-.1 1.428-.147 2.11-.31 1.58-.375 2.173-1.268 1.703-2.826-.58-1.928-1.322-3.807-1.992-5.702h-12.92c-.76 1.93-1.548 3.814-2.242 5.733-.597 1.65-.113 2.427 1.632 2.803.545.118 1.104.17 1.716.26v1.823h-10.49v-1.83c.394-.1.86-.103 1.173-.323.556-.39 1.257-.815 1.485-1.39 3.705-9.325 7.343-18.675 11.017-28.072zm-3.003 17.29h10.04L28.9 22.878l-4.924 12.784z"/></svg>