<svg xmlns="http://www.w3.org/2000/svg" width="64" height="64" viewBox="0 0 64 64"><path fill="#444" d="M64 60c0 2.21-1.79 4-4 4H4c-2.21 0-4-1.79-4-4V4c0-2.21 1.79-4 4-4h56c2.21 0 4 1.79 4 4v56z"/><path fill="#FFF" d="M32 8.686c-13.112 0-23.744 10.63-23.744 23.744 0 10.49 6.805 19.39 16.237 22.53 1.188.218 1.624-.516 1.624-1.145 0-.565-.02-2.437-.032-4.42-6.606 1.437-8-2.803-8-2.803-1.08-2.743-2.635-3.473-2.635-3.473-2.155-1.477.163-1.445.163-1.445 2.383.167 3.64 2.448 3.64 2.448 2.117 3.628 5.554 2.58 6.91 1.973.21-1.535.827-2.582 1.506-3.177-5.275-.6-10.82-2.64-10.82-11.733 0-2.593.93-4.71 2.448-6.375-.246-.598-1.06-3.012.23-6.282 0 0 1.995-.64 6.53 2.433 1.894-.527 3.925-.79 5.944-.8 2.015.01 4.05.273 5.947.8 4.53-3.072 6.52-2.433 6.52-2.433 1.293 3.27.48 5.685.234 6.282 1.52 1.662 2.442 3.782 2.442 6.375 0 9.118-5.554 11.127-10.84 11.715.852.738 1.607 2.182 1.607 4.397 0 3.176-.026 5.733-.026 6.515 0 .632.426 1.374 1.63 1.14 9.43-3.143 16.226-12.04 16.226-22.525 0-13.115-10.63-23.744-23.743-23.744z"/></svg>