<svg xmlns="http://www.w3.org/2000/svg" width="64" height="64" viewBox="0 0 64 64"><path fill="#DC4E41" d="M64 60c0 2.21-1.79 4-4 4H4c-2.21 0-4-1.79-4-4V4c0-2.21 1.79-4 4-4h56c2.21 0 4 1.79 4 4v56z"/><g fill-rule="evenodd" clip-rule="evenodd" fill="#FFF"><path d="M23.31 36.41h8.732c-.022.203-.02.347-.055.48-.294 1.116-.802 2.13-1.535 3.028-1.317 1.612-3.027 2.565-5.082 2.947-1.77.33-3.514.273-5.216-.322-4.495-1.57-7.115-6.027-6.43-10.69.263-1.776.984-3.384 2.18-4.746 2.414-2.746 5.46-3.86 9.1-3.29 1.534.242 2.906.89 4.094 1.897.11.093.23.17.376.28l4.128-3.93c-.092-.1-.146-.184-.222-.24-.78-.575-1.53-1.202-2.354-1.705-1.8-1.098-3.777-1.712-5.883-1.957-1.913-.223-3.798-.107-5.66.343-1.675.405-3.247 1.074-4.684 2.023-3.852 2.545-6.154 6.084-6.88 10.603-.3 1.863-.192 3.722.22 5.566.43 1.923 1.19 3.707 2.336 5.313 2.914 4.078 6.92 6.29 11.95 6.638 2.386.165 4.726-.19 6.943-1.096 4.215-1.717 6.865-4.83 8.126-9.12.58-1.975.715-3.998.57-6.043-.026-.383-.104-.763-.163-1.167H23.308c.003 1.718.003 3.413.003 5.187zM52.083 39.9v-4.367h4.383v-4.345h-4.412v-4.33h-4.398v4.356h-4.384v4.347h4.413v4.34h4.398z"/></g></svg>