<svg xmlns="http://www.w3.org/2000/svg" width="64" height="64" viewBox="0 0 64 64"><path fill="#0077B5" d="M64 60c0 2.21-1.79 4-4 4H4c-2.21 0-4-1.79-4-4V4c0-2.21 1.79-4 4-4h56c2.21 0 4 1.79 4 4v56z"/><g fill="#FFF"><path d="M10.287 24.58h9.568v28.785h-9.568zM15.072 20.648c3.336 0 5.413-2.21 5.413-4.973-.062-2.824-2.077-4.973-5.35-4.973-3.274 0-5.413 2.15-5.413 4.973 0 2.763 2.076 4.973 5.288 4.973h.062zM25.15 53.364h9.567V37.29c0-.86.062-1.722.315-2.335.69-1.72 2.266-3.5 4.908-3.5 3.462 0 4.847 2.64 4.847 6.508v15.4h9.567V36.858c0-8.84-4.72-12.955-11.016-12.955-5.16 0-7.427 2.885-8.686 4.85h.063V24.58H25.15c.126 2.7 0 28.784 0 28.784z"/></g></svg>