<svg xmlns="http://www.w3.org/2000/svg" width="64" height="64" viewBox="0 0 64 64"><path fill="#0077B5" d="M64 60c0 2.21-1.79 4-4 4H4c-2.21 0-4-1.79-4-4V4c0-2.21 1.79-4 4-4h56c2.21 0 4 1.79 4 4v56z"/><g fill="#FFF"><path d="M19.86 53.36V24.58h-9.57v28.79h9.57zm-4.79-32.71c3.34 0 5.41-2.21 5.41-4.97-.06-2.82-2.08-4.97-5.35-4.97-3.27 0-5.41 2.15-5.41 4.97 0 2.76 2.08 4.97 5.29 4.97h.06zM25.15 53.36h9.57V37.29c0-.86.06-1.72.32-2.33.69-1.72 2.27-3.5 4.91-3.5 3.46 0 4.85 2.64 4.85 6.51v15.4h9.57V36.86c0-8.84-4.72-12.95-11.02-12.95-5.16 0-7.43 2.89-8.69 4.85h.06v-4.17h-9.57c.13 2.69 0 28.77 0 28.77z"/></g></svg>