<svg xmlns="http://www.w3.org/2000/svg" width="64" height="64" viewBox="0 0 64 64"><path fill="#00D0AF" d="M64 60c0 2.21-1.79 4-4 4H4c-2.21 0-4-1.79-4-4V4c0-2.21 1.79-4 4-4h56c2.21 0 4 1.79 4 4v56z"/><path fill="#FFF" d="M39.822 56.75c1.004 0 2.067-.178 2.717-.473V54.74c-2.127 0-4.254-1.476-5.79-3.13-2.6-2.836-6.085-7.385-8.98-12.525 4.786-1.122 8.33-5.612 8.33-10.102 0-6.617-5.14-9.69-11.874-9.69-3.486 0-6.263.178-8.862.178-2.363 0-4.727 0-6.204-.058v1.713l2.245.414c1.536.294 2.422 1.004 2.422 4.667v23.276c0 3.663-.886 4.373-2.422 4.668l-2.245.414v1.713c1.595-.06 4.372-.178 7.148-.178 2.66 0 6.085.117 7.563.177v-1.713l-3.07-.414c-1.596-.235-2.423-1.005-2.423-4.668v-9.865c1.418.118 2.658.118 4.548.118 3.604 6.44 7.03 11.283 8.98 13.53 1.773 2.127 4.49 3.485 7.917 3.485M22.63 37.076c-2.008 0-2.895-.06-4.253-.177V22.07c1.358-.118 3.19-.118 4.785-.118 4.962 0 7.917 2.6 7.917 7.326 0 4.667-3.192 7.798-8.45 7.798m18.032-14.912c-.06-.31-.112-.674-.16-1.09-.05-.418-.083-.918-.102-1.5-.02-.582-.03-1.28-.03-2.096 0-.814.01-1.514.03-2.095.02-.583.053-1.083.102-1.5.048-.417.102-.78.16-1.092.058-.31.137-.61.232-.9.505-1.534 1.34-2.69 2.504-3.465s2.59-1.165 4.28-1.165c.872 0 1.657.102 2.356.306.698.204 1.32.485 1.863.844s1.01.776 1.396 1.25c.39.477.71.986.96 1.53.1.174.07.31-.086.407l-2.15.89c-.176.096-.312.047-.41-.147-.483-.893-.894-1.48-1.573-1.908-.68-.427-1.31-.625-2.357-.625-1.126 0-1.64.223-2.347.727-.71.504-1.218 1.13-1.528 2.082-.06.174-.116.388-.175.64-.058.252-.102.563-.13.93-.03.37-.054.82-.073 1.355-.02.535-.03 1.18-.03 1.937s.01 1.402.03 1.936c.02.533.044.985.072 1.354.03.37.073.68.13.93.06.253.117.467.176.642.31.95.746 1.468 1.38 1.888.635.418 1.37.727 2.495.727 1.008 0 1.932-.287 2.53-.724.6-.436 1.092-1.012 1.315-1.804.096-.33.225-.747.302-1.25.077-.506.076-1.045.076-1.784 0-.116-.06-.174-.175-.174h-3.438c-.194 0-.29-.097-.29-.292v-1.972c0-.194.096-.29.29-.29h6.316c.194 0 .29.096.29.29v1.688c0 .892-.002 1.722-.09 2.488-.087.767-.208 1.433-.363 1.918-.486 1.514-1.25 2.596-2.425 3.402-1.175.805-2.69 1.244-4.34 1.244-1.688 0-3.115-.388-4.28-1.164-1.163-.776-1.998-1.93-2.503-3.465-.093-.29-.172-.59-.23-.9"/></svg>