<svg xmlns="http://www.w3.org/2000/svg" width="64" height="64" viewBox="0 0 64 64"><path fill="#333" d="M64 60c0 2.21-1.79 4-4 4H4c-2.21 0-4-1.79-4-4V4c0-2.21 1.79-4 4-4h56c2.21 0 4 1.79 4 4v56z"/><path fill="none" d="M64.006 64H-.004V0h64.01v64zM4.986 32.125C4.63 46.67 17.05 59.475 32.563 59.16c14.426-.293 26.254-12.027 26.574-26.393.334-15.037-11.6-27.77-27.083-27.816C16.57 4.906 4.67 17.68 4.986 32.126z"/><path fill="#4C4C4C" d="M4.986 32.125C4.67 17.68 16.57 4.905 32.054 4.95c15.483.047 27.417 12.78 27.083 27.817-.318 14.365-12.148 26.1-26.574 26.393C17.05 59.475 4.63 46.67 4.986 32.125zm40.718 7.818c.354-.13.646-.23.935-.34 2.23-.832 4.388-1.795 6.087-3.547 2.233-2.307 2.322-5.38.234-7.81-1.237-1.44-2.812-2.388-4.526-3.124-.853-.365-1.725-.684-2.62-1.037.085-.564.17-1.095.243-1.626.27-1.966.398-3.932-.064-5.888-.6-2.523-2.45-4.404-4.518-4.58-2.18-.188-4.15.42-5.994 1.556-1.243.768-2.345 1.728-3.478 2.586-.273-.11-.43-.278-.604-.425-1.806-1.522-3.682-2.92-6.025-3.53-3.38-.876-6.104.575-7.18 3.836-.56 1.697-.543 3.44-.377 5.183.092.964.27 1.92.412 2.9-.79.303-1.568.58-2.33.903-1.952.83-3.748 1.88-5.084 3.595-1.562 2.007-1.65 4.59-.157 6.646 1.113 1.534 2.654 2.532 4.327 3.354 1.093.535 2.25.92 3.36 1.355-.147 1.005-.345 1.943-.41 2.89-.134 1.916-.25 3.834.452 5.695.915 2.423 3.17 3.853 5.708 3.614 1.878-.176 3.51-.938 5.054-1.958 1.007-.666 1.93-1.445 2.882-2.205l.792.64c1.922 1.552 3.933 2.918 6.418 3.437 2.707.564 5.17-.67 6.236-3.227.668-1.604.84-3.283.707-5.012-.098-1.28-.296-2.55-.48-3.885z"/><path fill="#E4E1D3" d="M45.704 39.943c.183 1.334.38 2.604.478 3.887.133 1.73-.04 3.408-.707 5.012-1.065 2.557-3.53 3.79-6.236 3.227-2.485-.52-4.496-1.886-6.42-3.44l-.79-.64c-.955.76-1.876 1.54-2.883 2.206-1.543 1.02-3.176 1.782-5.054 1.958-2.538.238-4.794-1.19-5.708-3.614-.703-1.86-.586-3.78-.453-5.695.066-.946.264-1.885.41-2.89-1.11-.436-2.267-.82-3.36-1.355-1.672-.82-3.213-1.82-4.326-3.354-1.493-2.056-1.405-4.64.157-6.646 1.336-1.716 3.132-2.766 5.085-3.595.76-.323 1.54-.6 2.33-.904-.143-.978-.32-1.935-.413-2.9-.166-1.743-.183-3.485.377-5.182 1.075-3.26 3.8-4.712 7.18-3.835 2.343.608 4.22 2.007 6.025 3.528.175.148.33.316.604.426 1.136-.858 2.236-1.818 3.48-2.586 1.843-1.137 3.815-1.744 5.994-1.557 2.066.177 3.918 2.058 4.518 4.58.464 1.957.335 3.923.064 5.888-.072.532-.158 1.063-.242 1.627.896.353 1.768.672 2.62 1.037 1.716.736 3.288 1.683 4.526 3.123 2.088 2.43 2 5.504-.234 7.81-1.7 1.753-3.855 2.716-6.088 3.548-.288.108-.58.21-.934.338zm-5.127-7.802c-1.25-2.59-2.697-5.08-4.278-7.478-2.87-.21-5.695-.255-8.556 0-1.55 2.4-3.018 4.855-4.22 7.493 1.28 2.526 2.684 4.97 4.22 7.286 2.89.223 5.714.227 8.58-.003.505-.8 1.03-1.597 1.522-2.416.944-1.586 1.87-3.188 2.73-4.88zm3.075-8.5c.313-1.345.492-2.62.55-3.903.052-1.23-.125-2.446-.62-3.59-.686-1.59-2.092-2.285-3.8-1.962-2.51.474-4.323 2.096-6.263 3.654 1.378 1.615 2.687 3.22 3.892 4.856 2.123.188 4.166.52 6.24.944zM33.514 46.357c.395.332.72.62 1.06.893 1.435 1.15 2.93 2.188 4.75 2.66 2.05.53 3.61-.284 4.313-2.296.83-2.386.37-4.752-.074-7.2-2.05.398-4.07.725-6.074.975-1.254 1.725-2.53 3.365-3.976 4.967zm11.54-8.502c1.35-.467 2.626-.96 3.824-1.627.95-.53 1.808-1.184 2.51-2.03 1.173-1.416 1.25-2.708.18-4.192-1.568-2.177-4-2.932-6.403-3.858-.684 2.048-1.416 4.027-2.332 5.947.8 1.885 1.545 3.772 2.222 5.76zm-24.546 2.57c-.244.942-.365 1.827-.447 2.71-.146 1.602-.165 3.198.43 4.738.62 1.61 2.144 2.46 3.832 2.135 2.477-.478 4.29-2.083 6.22-3.59-1.443-1.652-2.748-3.345-4.004-5.006-2.055-.247-4.017-.577-6.03-.988zm10.004-22.608c-1.7-1.41-3.38-2.8-5.522-3.46-2.334-.72-3.963.1-4.736 2.395-.554 1.645-.45 3.322-.187 4.995.097.617.098 1.267.396 1.84 1.878-.35 3.71-.708 5.57-.867.348-.03.62-.136.853-.43 1.18-1.477 2.38-2.94 3.626-4.473zm-11.615 8.398c-.998.313-1.915.685-2.81 1.11-1.44.684-2.77 1.523-3.714 2.848-.87 1.22-.866 2.488.016 3.683 1.645 2.23 4.138 3.057 6.608 4.008.663-1.99 1.396-3.88 2.166-5.766-.85-1.925-1.592-3.873-2.267-5.883zm22.81 3.43l1.434-3.96c-1.39-.338-2.74-.587-4.2-.77l2.767 4.73zm-16.59-4.73c-1.428.178-2.778.424-4.193.767.468 1.302.87 2.58 1.447 3.86.94-1.58 1.825-3.074 2.748-4.628zm9.625 16.756h-5.426c.936 1.11 1.766 2.184 2.738 3.192l2.688-3.19zm-.054-19.213c-.91-1.11-1.715-2.12-2.685-3.07-.862 1.038-1.774 1.946-2.57 3.07h5.255zm8.345 15.988c-.405-1.248-.795-2.43-1.28-3.606-.704.672-2.144 2.986-2.687 4.31 1.33-.238 2.622-.466 3.967-.705zm-21.954.016c1.33.224 2.598.435 3.96.663-.907-1.56-1.752-3.016-2.638-4.536-.518 1.302-.95 2.54-1.323 3.874z"/><path fill="#4C4C4C" d="M40.577 32.14c-.86 1.692-1.787 3.293-2.733 4.88-.488.82-1.016 1.617-1.52 2.415-2.866.23-5.692.227-8.58.006-1.537-2.315-2.94-4.76-4.22-7.286 1.202-2.638 2.67-5.094 4.22-7.494 2.86-.254 5.684-.21 8.554 0 1.582 2.4 3.028 4.89 4.28 7.48zm-5.472-.11c.004-1.77-1.354-3.146-3.104-3.15-1.68-.004-3.098 1.44-3.117 3.177-.02 1.702 1.322 3.085 3.002 3.1 1.897.013 3.217-1.266 3.22-3.127zM43.652 23.64c-2.074-.423-4.117-.756-6.24-.944-1.205-1.637-2.514-3.242-3.893-4.857 1.937-1.56 3.753-3.18 6.263-3.655 1.707-.322 3.113.37 3.8 1.96.494 1.146.67 2.36.618 3.592-.054 1.283-.233 2.558-.548 3.903zM33.514 46.357c1.445-1.604 2.723-3.242 3.975-4.97 2.004-.25 4.022-.575 6.073-.975.445 2.448.903 4.815.074 7.2-.703 2.012-2.266 2.828-4.314 2.296-1.82-.472-3.314-1.51-4.748-2.66-.34-.27-.668-.56-1.06-.89zM45.055 37.855c-.677-1.988-1.423-3.875-2.224-5.762.917-1.92 1.648-3.897 2.333-5.947 2.405.926 4.835 1.68 6.405 3.858 1.07 1.484.99 2.777-.182 4.192-.703.848-1.56 1.5-2.51 2.03-1.196.67-2.472 1.165-3.82 1.63zM20.508 40.424c2.014.41 3.975.74 6.03.988 1.255 1.66 2.56 3.354 4.004 5.005-1.93 1.508-3.744 3.113-6.22 3.59-1.69.327-3.212-.522-3.834-2.134-.593-1.54-.575-3.14-.428-4.738.083-.883.204-1.768.448-2.71zM30.512 17.817c-1.245 1.532-2.446 2.995-3.626 4.475-.232.292-.504.4-.852.43-1.862.158-3.693.516-5.57.865-.3-.572-.3-1.223-.397-1.84-.262-1.672-.367-3.35.187-4.994.773-2.296 2.402-3.116 4.736-2.395 2.142.66 3.823 2.05 5.522 3.46zM18.897 26.215c.675 2.01 1.415 3.958 2.267 5.882-.77 1.887-1.503 3.776-2.166 5.766-2.47-.95-4.962-1.776-6.61-4.008-.88-1.194-.884-2.462-.015-3.683.945-1.325 2.275-2.164 3.714-2.85.896-.423 1.813-.794 2.81-1.107zM41.707 29.644c-.938-1.602-1.83-3.13-2.77-4.73 1.46.184 2.813.433 4.2.77-.475 1.32-.938 2.6-1.43 3.96zM25.118 24.914L22.37 29.54c-.577-1.28-.978-2.557-1.446-3.86 1.414-.34 2.765-.587 4.194-.766zM34.742 41.67c-.918 1.09-1.78 2.116-2.688 3.192-.973-1.01-1.802-2.082-2.738-3.19h5.426zM34.688 22.457h-5.254c.796-1.125 1.708-2.033 2.57-3.07.97.95 1.773 1.958 2.684 3.07zM43.033 38.445l-3.967.703c.543-1.322 1.98-3.638 2.686-4.31.486 1.178.876 2.36 1.28 3.607zM21.08 38.46c.373-1.332.805-2.57 1.322-3.873.885 1.52 1.73 2.978 2.64 4.536l-3.963-.662z"/><path fill="#FCD14E" d="M35.105 32.03c-.006 1.858-1.323 3.14-3.218 3.126-1.68-.014-3.022-1.397-3.002-3.1.02-1.736 1.437-3.18 3.118-3.176 1.75.005 3.106 1.383 3.102 3.15z"/></svg>