<svg xmlns="http://www.w3.org/2000/svg" width="64" height="64" viewBox="0 0 64 64"><path fill="#55ACEE" d="M64 60c0 2.21-1.79 4-4 4H4c-2.21 0-4-1.79-4-4V4c0-2.21 1.79-4 4-4h56c2.21 0 4 1.79 4 4v56z"/><path fill="#FFF" d="M54.884 17.807c-1.684.747-3.494 1.25-5.393 1.48 1.94-1.163 3.428-3.003 4.128-5.195-1.813 1.076-3.822 1.857-5.962 2.278-1.71-1.825-4.152-2.965-6.853-2.965-5.185 0-9.388 4.203-9.388 9.39 0 .735.082 1.452.243 2.14-7.804-.392-14.722-4.13-19.352-9.81-.81 1.385-1.27 2.997-1.27 4.72 0 3.257 1.656 6.13 4.176 7.814-1.54-.05-2.987-.47-4.253-1.175-.002.04-.002.08-.002.118 0 4.55 3.237 8.345 7.532 9.207-.788.215-1.617.328-2.473.328-.605 0-1.193-.058-1.767-.167 1.195 3.73 4.662 6.445 8.77 6.52-3.215 2.52-7.263 4.02-11.662 4.02-.757 0-1.505-.044-2.24-.13 4.157 2.664 9.09 4.218 14.394 4.218 17.27 0 26.712-14.307 26.712-26.714 0-.407-.01-.81-.027-1.213 1.834-1.324 3.426-2.977 4.685-4.86"/></svg>